<svg xmlns="http://www.w3.org/2000/svg">
    <symbol id="logo" viewBox="0 0 205 40">
        <path d="M.84 11.024c-.206-.33-.397-.78-.574-1.35A6.033 6.033 0 0 1 0 7.874c0-1.17.25-2.01.752-2.52.532-.51 1.21-.765 2.036-.765h19.297c.207.33.398.78.575 1.35.177.57.266 1.17.266 1.8 0 1.17-.266 2.01-.797 2.52-.501.51-1.165.765-1.991.765h-4.913V31.81c-.325.09-.84.18-1.55.27-.678.09-1.356.135-2.035.135s-1.284-.06-1.815-.18c-.501-.09-.929-.27-1.283-.54-.354-.27-.62-.645-.797-1.125-.177-.48-.265-1.11-.265-1.89V11.024H.84ZM31.85 31.946c-.295.09-.768.18-1.417.27-.62.09-1.268.135-1.947.135-.65 0-1.24-.045-1.77-.135-.502-.09-.93-.27-1.284-.54a2.792 2.792 0 0 1-.84-1.08c-.178-.48-.266-1.095-.266-1.845V15.253c0-.69.118-1.275.354-1.755a4.35 4.35 0 0 1 1.106-1.35c.472-.39 1.048-.734 1.726-1.034a16.838 16.838 0 0 1 4.736-1.395c.856-.15 1.711-.225 2.567-.225 1.416 0 2.538.285 3.364.855.826.54 1.239 1.44 1.239 2.7 0 .42-.06.84-.177 1.26-.118.39-.266.75-.443 1.08a20.679 20.679 0 0 0-3.806.359c-.62.12-1.21.255-1.77.405a6.74 6.74 0 0 0-1.372.45v15.343ZM42.345 4.05c0-1.14.369-2.1 1.106-2.88.767-.78 1.77-1.17 3.01-1.17 1.24 0 2.228.39 2.965 1.17.767.78 1.151 1.74 1.151 2.88s-.384 2.1-1.15 2.88c-.738.779-1.727 1.169-2.966 1.169-1.24 0-2.242-.39-3.01-1.17-.737-.78-1.106-1.74-1.106-2.88Zm7.878 27.896c-.325.06-.812.135-1.46.225-.62.12-1.255.18-1.904.18s-1.239-.045-1.77-.135c-.502-.09-.93-.27-1.284-.54a2.79 2.79 0 0 1-.84-1.08c-.178-.48-.266-1.095-.266-1.845V10.44c.325-.06.797-.135 1.416-.225.65-.12 1.298-.18 1.948-.18.649 0 1.224.045 1.726.135.53.09.973.27 1.327.54.355.27.62.645.797 1.125.207.45.31 1.05.31 1.8v18.312ZM64.882 9.449c1.77 0 3.408.24 4.913.72 1.535.45 2.848 1.155 3.94 2.114 1.091.96 1.947 2.175 2.566 3.645.62 1.44.93 3.165.93 5.174 0 1.92-.266 3.6-.797 5.04s-1.283 2.654-2.257 3.644c-.974.96-2.154 1.68-3.54 2.16-1.358.48-2.878.72-4.56.72-1.268 0-2.448-.195-3.54-.585v7.47c-.295.089-.767.179-1.416.269-.65.12-1.314.18-1.992.18-.65 0-1.24-.045-1.77-.135-.502-.09-.93-.27-1.284-.54s-.62-.645-.797-1.125c-.177-.45-.265-1.05-.265-1.8V14.803c0-.81.162-1.47.487-1.98.354-.51.826-.975 1.416-1.394.915-.6 2.05-1.08 3.408-1.44 1.357-.36 2.877-.54 4.558-.54Zm.09 17.188c3.038 0 4.558-1.845 4.558-5.535 0-1.92-.384-3.344-1.151-4.274-.738-.93-1.815-1.395-3.23-1.395-.561 0-1.063.075-1.506.225a5.15 5.15 0 0 0-1.15.45v9.899c.354.18.737.33 1.15.45.413.12.856.18 1.328.18ZM105.466 31.811c-.325.09-.841.18-1.549.27-.679.09-1.357.135-2.036.135a8.28 8.28 0 0 1-1.815-.18 2.936 2.936 0 0 1-1.283-.54c-.354-.27-.62-.645-.797-1.125-.177-.48-.265-1.11-.265-1.89v-7.019h-8.498v10.349c-.325.09-.84.18-1.549.27-.679.09-1.357.135-2.036.135-.678 0-1.283-.06-1.815-.18-.501-.09-.929-.27-1.283-.54-.354-.27-.62-.645-.797-1.125-.177-.48-.265-1.11-.265-1.89V4.724c.324-.06.84-.135 1.549-.225.708-.12 1.387-.18 2.036-.18.678 0 1.269.06 1.77.18.531.09.974.27 1.328.54.354.27.62.645.796 1.125.178.48.266 1.11.266 1.89v7.2h8.498V4.723c.324-.06.84-.135 1.549-.225.708-.12 1.387-.18 2.036-.18.678 0 1.268.06 1.77.18.531.09.974.27 1.328.54.354.27.619.645.796 1.125.177.48.266 1.11.266 1.89v23.757ZM132.901 21.057c0 1.86-.28 3.525-.841 4.995-.561 1.44-1.357 2.654-2.39 3.644-1.003.99-2.213 1.74-3.629 2.25-1.417.51-2.995.765-4.736.765-1.741 0-3.319-.27-4.736-.81-1.416-.54-2.64-1.305-3.673-2.295-1.003-1.02-1.785-2.25-2.346-3.69-.56-1.44-.841-3.059-.841-4.859 0-1.77.281-3.374.841-4.814.561-1.44 1.343-2.655 2.346-3.645a10.468 10.468 0 0 1 3.673-2.34c1.417-.54 2.995-.81 4.736-.81 1.741 0 3.319.286 4.736.856 1.416.54 2.626 1.32 3.629 2.34 1.033.99 1.829 2.204 2.39 3.644.561 1.44.841 3.03.841 4.77Zm-15.491 0c0 1.83.34 3.24 1.018 4.23.708.96 1.682 1.44 2.921 1.44 1.24 0 2.184-.495 2.833-1.485.679-.99 1.018-2.385 1.018-4.185 0-1.8-.339-3.18-1.018-4.14-.679-.989-1.638-1.484-2.877-1.484-1.239 0-2.198.495-2.877 1.485-.678.96-1.018 2.34-1.018 4.14ZM136.572 10.439c.295-.09.752-.18 1.372-.27.649-.09 1.313-.135 1.991-.135.649 0 1.225.045 1.726.135.531.09.974.27 1.328.54.354.27.62.645.797 1.125.206.45.31 1.05.31 1.8v9.673c0 1.23.295 2.115.885 2.655.59.51 1.445.765 2.567.765.678 0 1.224-.06 1.637-.18.443-.12.782-.24 1.018-.36V10.439c.295-.09.753-.18 1.372-.27.649-.09 1.313-.135 1.992-.135.649 0 1.224.045 1.726.135.531.09.974.27 1.328.54.354.27.619.645.796 1.125.207.45.31 1.05.31 1.8v13.678c0 1.5-.619 2.624-1.859 3.374-1.032.66-2.272 1.155-3.717 1.485-1.417.36-2.966.54-4.648.54-1.593 0-3.068-.18-4.425-.54-1.328-.36-2.479-.915-3.453-1.665-.973-.75-1.726-1.71-2.257-2.88-.531-1.2-.796-2.64-.796-4.319V10.44ZM180.478 25.467c0 2.28-.841 4.064-2.523 5.354-1.682 1.29-4.161 1.935-7.436 1.935-1.239 0-2.39-.09-3.452-.27-1.062-.18-1.977-.45-2.744-.81-.737-.39-1.328-.87-1.77-1.44-.413-.57-.62-1.245-.62-2.024 0-.72.148-1.32.443-1.8.295-.51.649-.93 1.062-1.26.856.48 1.829.915 2.921 1.305 1.121.36 2.405.54 3.851.54.914 0 1.608-.135 2.08-.405.501-.27.752-.63.752-1.08 0-.42-.177-.75-.531-.99-.354-.24-.944-.435-1.77-.585l-1.328-.27c-2.567-.51-4.485-1.305-5.754-2.385-1.239-1.11-1.859-2.684-1.859-4.724 0-1.11.236-2.115.709-3.015a6.286 6.286 0 0 1 1.991-2.25c.856-.6 1.874-1.064 3.054-1.394 1.21-.33 2.538-.495 3.983-.495 1.092 0 2.11.09 3.054.27.974.15 1.815.39 2.523.72.708.33 1.269.765 1.682 1.304.413.51.619 1.125.619 1.845 0 .69-.132 1.29-.398 1.8-.236.48-.546.885-.929 1.215-.236-.15-.591-.3-1.063-.45-.472-.18-.988-.33-1.549-.45-.56-.15-1.136-.27-1.726-.36a9.82 9.82 0 0 0-1.549-.135c-.974 0-1.726.12-2.257.36-.531.21-.797.555-.797 1.035 0 .33.148.6.443.81.295.21.856.405 1.682.585l1.372.315c2.832.66 4.839 1.575 6.019 2.744 1.21 1.14 1.815 2.625 1.815 4.455ZM195.706 32.71c-1.741 0-3.364-.24-4.869-.719a11.498 11.498 0 0 1-3.895-2.25c-1.091-.99-1.962-2.234-2.611-3.734-.619-1.5-.929-3.255-.929-5.265 0-1.98.31-3.674.929-5.084.649-1.44 1.49-2.61 2.523-3.51a9.525 9.525 0 0 1 3.541-2.024 12.601 12.601 0 0 1 4.071-.675c1.564 0 2.981.24 4.249.72 1.299.48 2.405 1.14 3.32 1.98a8.426 8.426 0 0 1 2.168 3.014c.531 1.17.797 2.445.797 3.825 0 1.02-.28 1.8-.841 2.34-.561.54-1.342.884-2.346 1.034l-10.932 1.665c.325.99.989 1.74 1.992 2.25 1.003.48 2.154.72 3.452.72 1.21 0 2.346-.15 3.408-.45 1.092-.33 1.977-.705 2.656-1.125.472.3.87.72 1.195 1.26.324.54.487 1.11.487 1.71 0 1.35-.62 2.354-1.859 3.014-.944.51-2.007.855-3.187 1.035-1.18.18-2.287.27-3.319.27Zm-1.24-17.682c-.708 0-1.327.12-1.858.36-.502.24-.915.555-1.24.945-.324.36-.575.78-.752 1.26-.148.45-.236.915-.266 1.395l7.569-1.26c-.089-.6-.413-1.2-.974-1.8-.561-.6-1.387-.9-2.479-.9Z" fill="#3077C6"/>
    </symbol>

    <symbol id="night-mode" viewBox="0 0 30 30">
        <path d="M25.61 10.61V4.39h-6.22L15 0l-4.39 4.39H4.39v6.22L0 15l4.39 4.39v6.22h6.22L15 30l4.39-4.39h6.22v-6.22L30 15l-4.39-4.39ZM15 22.958a7.924 7.924 0 0 1-3.316-.73c2.732-1.26 4.642-4.018 4.642-7.228s-1.91-5.968-4.642-7.228A7.924 7.924 0 0 1 15 7.042c4.39 0 7.958 3.568 7.958 7.958 0 4.39-3.568 7.958-7.958 7.958Z" fill="#fff"/>
    </symbol>

    <symbol id="account" viewBox="0 0 40 40">
        <path d="M20 0C8.96 0 0 8.96 0 20s8.96 20 20 20 20-8.96 20-20S31.04 0 20 0Zm0 6c3.32 0 6 2.68 6 6s-2.68 6-6 6-6-2.68-6-6 2.68-6 6-6Zm0 28.4c-5 0-9.42-2.56-12-6.44.06-3.98 8-6.16 12-6.16 3.98 0 11.94 2.18 12 6.16-2.58 3.88-7 6.44-12 6.44Z" fill="#fff"/>
    </symbol>

    <symbol id="google-play" viewBox="0 0 135 40">
        <path d="M130 40H5c-2.75 0-5-2.25-5-5V5c0-2.75 2.25-5 5-5h125c2.75 0 5 2.25 5 5v30c0 2.75-2.25 5-5 5Z" fill="#000"/>
        <path d="M130 .8a4.2 4.2 0 0 1 4.2 4.2v30a4.2 4.2 0 0 1-4.2 4.2H5A4.2 4.2 0 0 1 .8 35V5A4.2 4.2 0 0 1 5 .8h125Zm0-.8H5C2.25 0 0 2.25 0 5v30c0 2.75 2.25 5 5 5h125c2.75 0 5-2.25 5-5V5c0-2.75-2.25-5-5-5Z" fill="#A6A6A6"/><path d="M47.42 10.24c0 .84-.25 1.51-.75 2-.56.59-1.3.89-2.2.89-.87 0-1.6-.3-2.21-.9-.61-.6-.91-1.35-.91-2.23 0-.89.3-1.63.91-2.23.61-.6 1.34-.9 2.21-.9.43 0 .84.08 1.23.25.39.17.7.39.94.67l-.53.53c-.4-.47-.94-.71-1.64-.71-.63 0-1.18.22-1.64.67-.46.44-.69 1.02-.69 1.73s.23 1.29.69 1.73c.46.44 1.01.67 1.64.67.67 0 1.23-.22 1.68-.67.29-.29.46-.7.5-1.22h-2.18V9.8h2.91c.02.15.04.3.04.44ZM52.03 7.74H49.3v1.9h2.46v.72H49.3v1.9h2.73V13h-3.5V7h3.5v.74ZM55.28 13h-.77V7.74h-1.68V7h4.12v.74h-1.68V13h.01ZM59.94 13V7h.77v6h-.77ZM64.13 13h-.77V7.74h-1.68V7h4.12v.74h-1.68V13h.01ZM73.61 12.22c-.59.61-1.32.91-2.2.91-.88 0-1.61-.3-2.2-.91-.59-.61-.88-1.35-.88-2.22 0-.87.29-1.62.88-2.22.59-.61 1.32-.91 2.2-.91.87 0 1.6.3 2.2.91.59.61.89 1.35.89 2.22-.01.88-.3 1.62-.89 2.22Zm-3.83-.5c.44.45.99.67 1.63.67.64 0 1.19-.22 1.63-.67.44-.45.67-1.02.67-1.72s-.22-1.27-.67-1.72c-.44-.45-.99-.67-1.63-.67-.64 0-1.19.22-1.63.67-.44.45-.67 1.02-.67 1.72s.23 1.27.67 1.72ZM75.58 13V7h.94l2.92 4.67h.03l-.03-1.16V7h.77v6h-.8l-3.05-4.89h-.03l.03 1.16V13h-.78Z" fill="#fff" stroke="#fff" stroke-width=".2" stroke-miterlimit="10"/><path d="M68.14 21.75c-2.35 0-4.27 1.79-4.27 4.25 0 2.45 1.92 4.25 4.27 4.25 2.35 0 4.27-1.8 4.27-4.25 0-2.46-1.92-4.25-4.27-4.25Zm0 6.83c-1.29 0-2.4-1.06-2.4-2.58 0-1.53 1.11-2.58 2.4-2.58 1.29 0 2.4 1.05 2.4 2.58 0 1.52-1.12 2.58-2.4 2.58Zm-9.32-6.83c-2.35 0-4.27 1.79-4.27 4.25 0 2.45 1.92 4.25 4.27 4.25 2.35 0 4.27-1.8 4.27-4.25 0-2.46-1.92-4.25-4.27-4.25Zm0 6.83c-1.29 0-2.4-1.06-2.4-2.58 0-1.53 1.11-2.58 2.4-2.58 1.29 0 2.4 1.05 2.4 2.58 0 1.52-1.11 2.58-2.4 2.58Zm-11.08-5.52v1.8h4.32c-.13 1.01-.47 1.76-.98 2.27-.63.63-1.61 1.32-3.33 1.32-2.66 0-4.74-2.14-4.74-4.8 0-2.66 2.08-4.8 4.74-4.8 1.43 0 2.48.56 3.25 1.29l1.27-1.27c-1.08-1.03-2.51-1.82-4.53-1.82-3.64 0-6.7 2.96-6.7 6.61 0 3.64 3.06 6.61 6.7 6.61 1.97 0 3.45-.64 4.61-1.85 1.19-1.19 1.56-2.87 1.56-4.22 0-.42-.03-.81-.1-1.13h-6.07v-.01Zm45.31 1.4c-.35-.95-1.43-2.71-3.64-2.71-2.19 0-4.01 1.72-4.01 4.25 0 2.38 1.8 4.25 4.22 4.25 1.95 0 3.08-1.19 3.54-1.88l-1.45-.97c-.48.71-1.14 1.18-2.09 1.18s-1.63-.44-2.06-1.29l5.69-2.35-.2-.48Zm-5.8 1.42c-.05-1.64 1.27-2.48 2.22-2.48.74 0 1.37.37 1.58.9l-3.8 1.58ZM82.63 30h1.87V17.5h-1.87V30Zm-3.06-7.3h-.07c-.42-.5-1.22-.95-2.24-.95-2.13 0-4.08 1.87-4.08 4.27 0 2.38 1.95 4.24 4.08 4.24 1.01 0 1.82-.45 2.24-.97h.06v.61c0 1.63-.87 2.5-2.27 2.5-1.14 0-1.85-.82-2.14-1.51l-1.63.68c.47 1.13 1.71 2.51 3.77 2.51 2.19 0 4.04-1.29 4.04-4.43v-7.64h-1.77v.69h.01Zm-2.15 5.88c-1.29 0-2.37-1.08-2.37-2.56 0-1.5 1.08-2.59 2.37-2.59 1.27 0 2.27 1.1 2.27 2.59.01 1.48-.99 2.56-2.27 2.56Zm24.39-11.08h-4.47V30h1.87v-4.74h2.61c2.07 0 4.1-1.5 4.1-3.88s-2.05-3.88-4.11-3.88Zm.04 6.02H99.2v-4.29h2.65c1.4 0 2.19 1.16 2.19 2.14 0 .98-.79 2.15-2.19 2.15Zm11.54-1.79c-1.35 0-2.75.6-3.33 1.91l1.66.69c.35-.69 1.01-.92 1.7-.92.96 0 1.95.58 1.96 1.61v.13c-.34-.19-1.06-.48-1.95-.48-1.79 0-3.6.98-3.6 2.81 0 1.67 1.46 2.75 3.1 2.75 1.25 0 1.95-.56 2.38-1.22h.06v.97h1.8v-4.79c.01-2.22-1.65-3.46-3.78-3.46Zm-.23 6.85c-.61 0-1.46-.31-1.46-1.06 0-.96 1.06-1.33 1.98-1.33.82 0 1.21.18 1.7.42a2.257 2.257 0 0 1-2.22 1.97ZM123.74 22l-2.14 5.42h-.06L119.32 22h-2.01l3.33 7.58-1.9 4.21h1.95L125.82 22h-2.08Zm-16.8 8h1.87V17.5h-1.87V30Z" fill="#fff"/><path d="M10.44 7.54c-.29.31-.46.79-.46 1.4v22.12c0 .62.17 1.1.46 1.4l.07.07L22.9 20.15v-.3L10.51 7.47l-.07.07Z" fill="url(#a)"/><path d="m27.03 24.28-4.13-4.13v-.3l4.13-4.13.09.05 4.89 2.78c1.4.79 1.4 2.09 0 2.89l-4.89 2.78-.09.06Z" fill="url(#b)"/><path d="M27.12 24.22 22.9 20 10.44 32.46c.46.49 1.22.55 2.08.06l14.6-8.3Z" fill="url(#c)"/><path d="m27.12 15.78-14.61-8.3c-.86-.49-1.62-.43-2.08.06L22.9 20l4.22-4.22Z" fill="url(#d)"/><path opacity=".2" d="m27.03 24.13-14.52 8.25c-.81.46-1.54.43-2 .01l-.07.07.07.07c.47.42 1.19.45 2-.01l14.61-8.3-.09-.09Z" fill="#000"/><path opacity=".12" d="M10.44 32.32c-.29-.31-.46-.79-.46-1.4v.15c0 .62.17 1.1.46 1.4l.07-.07-.07-.08ZM32.01 21.3l-4.99 2.83.09.09L32 21.44c.7-.4 1.05-.92 1.05-1.44-.05.47-.4.94-1.04 1.3Z" fill="#000"/><path opacity=".25" d="m12.51 7.62 19.5 11.08c.63.36.99.82 1.05 1.3 0-.52-.35-1.05-1.05-1.44L12.51 7.48c-1.4-.79-2.54-.13-2.54 1.47v.15c0-1.61 1.15-2.27 2.54-1.48Z" fill="#fff"/><defs><linearGradient id="a" x1="21.8" y1="8.71" x2="5.017" y2="25.492" gradientUnits="userSpaceOnUse"><stop stop-color="#00A0FF"/><stop offset=".007" stop-color="#00A1FF"/><stop offset=".26" stop-color="#00BEFF"/><stop offset=".512" stop-color="#00D2FF"/><stop offset=".76" stop-color="#00DFFF"/><stop offset="1" stop-color="#00E3FF"/></linearGradient><linearGradient id="b" x1="33.834" y1="20.001" x2="9.638" y2="20.001" gradientUnits="userSpaceOnUse"><stop stop-color="#FFE000"/><stop offset=".409" stop-color="#FFBD00"/><stop offset=".775" stop-color="orange"/><stop offset="1" stop-color="#FF9C00"/></linearGradient><linearGradient id="c" x1="24.827" y1="22.296" x2="2.069" y2="45.054" gradientUnits="userSpaceOnUse"><stop stop-color="#FF3A44"/><stop offset="1" stop-color="#C31162"/></linearGradient><linearGradient id="d" x1="7.297" y1=".176" x2="17.46" y2="10.339" gradientUnits="userSpaceOnUse"><stop stop-color="#32A071"/><stop offset=".069" stop-color="#2DA771"/><stop offset=".476" stop-color="#15CF74"/><stop offset=".801" stop-color="#06E775"/><stop offset="1" stop-color="#00F076"/></linearGradient></defs>
    </symbol>

    <symbol id="appstore" viewBox="0 0 135 40">
        <path d="M124.249 0H10.757c-.414 0-.823 0-1.235.002-.346.002-.688.008-1.037.013-.758.008-1.513.067-2.26.177A8.208 8.208 0 0 0 4.08.819a7.294 7.294 0 0 0-1.826 1.178 6.352 6.352 0 0 0-1.33 1.621A6.093 6.093 0 0 0 .22 5.522a11.56 11.56 0 0 0-.202 2.002c-.01.306-.011.614-.017.92V31.56c.006.31.007.61.017.921.01.671.077 1.34.202 2.002a6.08 6.08 0 0 0 .705 1.905c.342.598.791 1.143 1.33 1.614.533.477 1.15.875 1.826 1.179a8.248 8.248 0 0 0 2.144.63c.748.11 1.503.168 2.26.177.35.007.692.011 1.038.011.412.002.821.002 1.235.002h113.492c.406 0 .818 0 1.223-.002.344 0 .697-.004 1.04-.01a16.872 16.872 0 0 0 2.257-.178 8.367 8.367 0 0 0 2.152-.63A7.1 7.1 0 0 0 132.746 38a6.5 6.5 0 0 0 1.333-1.614c.341-.6.576-1.242.698-1.905.126-.661.196-1.33.21-2.002.004-.31.004-.61.004-.921.009-.364.009-.725.009-1.094V9.536c0-.366 0-.73-.009-1.092 0-.306 0-.614-.004-.92a12.043 12.043 0 0 0-.21-2.002 6.096 6.096 0 0 0-.698-1.904c-.696-1.203-1.801-2.182-3.158-2.8a8.324 8.324 0 0 0-2.152-.627c-.746-.11-1.5-.169-2.257-.176-.343-.005-.696-.011-1.04-.013C125.067 0 124.655 0 124.249 0Z" fill="#A6A6A6"/><path d="M9.527 39.125c-.344 0-.68-.004-1.02-.01a16.115 16.115 0 0 1-2.109-.164c-.65-.099-1.28-.284-1.869-.548a6.128 6.128 0 0 1-1.576-1.016 5.407 5.407 0 0 1-1.151-1.397 5.28 5.28 0 0 1-.613-1.657 11.044 11.044 0 0 1-.188-1.875c-.007-.21-.016-.913-.016-.913v-23.1s.01-.692.016-.895c.009-.627.071-1.253.187-1.872a5.31 5.31 0 0 1 .613-1.662c.294-.518.681-.99 1.146-1.398a6.304 6.304 0 0 1 1.582-1.023 7.172 7.172 0 0 1 1.865-.544C7.094.95 7.8.895 8.51.887L9.528.875h115.939l1.03.013c.702.007 1.403.062 2.097.162.655.1 1.29.284 1.885.548 1.17.535 2.123 1.381 2.724 2.42.294.52.498 1.076.604 1.65.117.623.183 1.254.196 1.886.003.284.003.588.003.89.009.375.009.732.009 1.092v20.929c0 .363 0 .718-.009 1.075 0 .325 0 .623-.004.93-.013.62-.078 1.24-.193 1.853a5.297 5.297 0 0 1-.609 1.67 5.58 5.58 0 0 1-1.146 1.386 6.133 6.133 0 0 1-1.579 1.023 7.218 7.218 0 0 1-1.881.55c-.698.1-1.403.155-2.109.162-.331.007-.677.011-1.013.011l-1.223.002-114.722-.002Z" fill="#000"/><path d="M27.943 20.3a4.526 4.526 0 0 1 .727-2.378 5.28 5.28 0 0 1 1.932-1.773 5.548 5.548 0 0 0-1.964-1.551 6.291 6.291 0 0 0-2.539-.607c-1.894-.176-3.73 1.005-4.696 1.005-.984 0-2.47-.988-4.071-.958a6.567 6.567 0 0 0-2.929.774 5.665 5.665 0 0 0-2.117 1.954c-2.182 3.348-.555 8.269 1.535 10.976 1.046 1.325 2.268 2.805 3.867 2.753 1.565-.058 2.15-.885 4.038-.885 1.872 0 2.42.885 4.052.852 1.679-.025 2.737-1.332 3.746-2.67a10.51 10.51 0 0 0 1.713-3.092c-.976-.366-1.808-.978-2.394-1.76a4.404 4.404 0 0 1-.9-2.64ZM24.861 12.211c.916-.974 1.367-2.226 1.258-3.49-1.399.13-2.69.722-3.619 1.659-.453.458-.801.99-1.022 1.567a4.151 4.151 0 0 0-.268 1.794c.7.007 1.392-.128 2.024-.393a4.582 4.582 0 0 0 1.627-1.137ZM47.724 27.14h-5.34L41.1 30.496H38.84l5.058-12.418h2.35l5.058 12.418h-2.3l-1.281-3.356Zm-4.787-1.55h4.233l-2.087-5.446h-.058l-2.088 5.447ZM62.229 25.97c0 2.813-1.699 4.621-4.263 4.621a3.827 3.827 0 0 1-1.863-.383 3.291 3.291 0 0 1-1.35-1.201h-.049v4.484h-2.096V21.442h2.029v1.506h.038a3.458 3.458 0 0 1 1.377-1.198 4 4 0 0 1 1.876-.402c2.592 0 4.3 1.816 4.3 4.622Zm-2.155 0c0-1.833-1.069-3.038-2.7-3.038-1.601 0-2.679 1.23-2.679 3.038 0 1.824 1.078 3.046 2.68 3.046 1.63 0 2.699-1.196 2.699-3.046ZM73.47 25.97c0 2.813-1.698 4.621-4.262 4.621a3.827 3.827 0 0 1-1.863-.383 3.291 3.291 0 0 1-1.35-1.201h-.049v4.484H63.85V21.442h2.029v1.506h.038a3.458 3.458 0 0 1 1.377-1.198 4 4 0 0 1 1.876-.402c2.592 0 4.3 1.816 4.3 4.622Zm-2.154 0c0-1.833-1.069-3.038-2.7-3.038-1.601 0-2.679 1.23-2.679 3.038 0 1.824 1.078 3.046 2.68 3.046 1.63 0 2.699-1.196 2.699-3.046ZM80.9 27.036c.156 1.232 1.506 2.04 3.35 2.04 1.767 0 3.038-.808 3.038-1.919 0-.964-.766-1.54-2.582-1.936l-1.816-.388c-2.572-.55-3.766-1.617-3.766-3.348 0-2.142 2.106-3.614 5.097-3.614 2.96 0 4.99 1.472 5.058 3.614h-2.116c-.127-1.239-1.282-1.987-2.971-1.987-1.69 0-2.845.757-2.845 1.858 0 .878.738 1.395 2.544 1.79l1.543.336c2.875.603 4.069 1.626 4.069 3.443 0 2.323-2.088 3.778-5.408 3.778-3.107 0-5.205-1.42-5.34-3.667H80.9ZM94.028 19.3v2.143h1.942v1.471h-1.942v4.991c0 .776.389 1.137 1.242 1.137.231-.003.461-.018.69-.043v1.463a6.488 6.488 0 0 1-1.164.086c-2.068 0-2.875-.688-2.875-2.444v-5.19h-1.485v-1.471h1.485V19.3h2.107ZM97.095 25.97c0-2.849 1.893-4.639 4.844-4.639 2.962 0 4.846 1.79 4.846 4.639 0 2.856-1.874 4.639-4.846 4.639-2.97 0-4.844-1.783-4.844-4.64Zm7.553 0c0-1.954-1.01-3.107-2.709-3.107s-2.708 1.162-2.708 3.107c0 1.962 1.009 3.106 2.708 3.106 1.699 0 2.709-1.144 2.709-3.106ZM108.513 21.442h2v1.541h.048c.136-.48.454-.906.901-1.204.447-.298.997-.45 1.556-.431.242-.001.483.022.718.07v1.737a3.28 3.28 0 0 0-.942-.112 2.355 2.355 0 0 0-.89.14 2.142 2.142 0 0 0-.743.456 1.843 1.843 0 0 0-.459.69 1.668 1.668 0 0 0-.092.797v5.37h-2.097v-9.053ZM123.403 27.837c-.282 1.644-2.088 2.771-4.398 2.771-2.972 0-4.816-1.764-4.816-4.595 0-2.84 1.854-4.682 4.728-4.682 2.825 0 4.603 1.72 4.603 4.466v.637h-7.214v.112c-.034.333.013.669.138.985.124.316.323.604.582.847.26.242.575.433.925.56.349.126.725.185 1.102.172.496.042.993-.06 1.418-.29.425-.229.755-.574.941-.983h1.991Zm-7.088-2.702h5.107c.019-.3-.033-.6-.151-.88a2.16 2.16 0 0 0-.535-.754 2.502 2.502 0 0 0-.832-.5 2.732 2.732 0 0 0-.987-.164 2.875 2.875 0 0 0-.996.171 2.633 2.633 0 0 0-.845.498 2.286 2.286 0 0 0-.564.747c-.131.28-.197.58-.197.882ZM42.674 8.731c.44-.028.88.031 1.291.172.411.142.781.362 1.084.646.303.284.532.623.669.995.136.37.179.764.123 1.152 0 1.906-1.162 3.002-3.167 3.002h-2.432V8.73h2.432Zm-1.386 5.123h1.27c.313.017.627-.029.92-.133a2.14 2.14 0 0 0 .765-.472c.213-.205.371-.45.463-.717.093-.266.117-.548.071-.824a1.676 1.676 0 0 0-.078-.82 1.843 1.843 0 0 0-.464-.71 2.146 2.146 0 0 0-.763-.469 2.367 2.367 0 0 0-.915-.135h-1.27v4.28ZM47.022 12.444a1.908 1.908 0 0 1 .113-.876c.105-.282.277-.542.502-.761.226-.22.5-.396.807-.517a2.673 2.673 0 0 1 1.948 0c.306.12.581.296.807.517.226.22.397.479.503.76.105.283.144.582.112.877.032.297-.005.596-.111.878a2.094 2.094 0 0 1-.502.763c-.226.22-.501.396-.808.517a2.67 2.67 0 0 1-.975.183 2.67 2.67 0 0 1-.975-.183 2.417 2.417 0 0 1-.807-.517 2.094 2.094 0 0 1-.503-.763 1.906 1.906 0 0 1-.11-.878Zm3.76 0c0-.976-.494-1.546-1.362-1.546-.872 0-1.362.57-1.362 1.546 0 .984.49 1.55 1.362 1.55.868 0 1.363-.57 1.363-1.55ZM58.183 14.698h-1.04l-1.05-3.317h-.08l-1.045 3.317h-1.03l-1.4-4.503h1.017l.91 3.436h.074l1.045-3.436h.962l1.044 3.436h.08l.905-3.436h1.003l-1.395 4.503ZM60.755 10.195h.965v.715h.075c.127-.257.342-.472.613-.616a1.68 1.68 0 0 1 .903-.186c.248-.017.496.016.726.097.231.08.439.205.608.366.169.16.294.353.368.563.074.21.093.431.057.649v2.915h-1.003v-2.692c0-.724-.355-1.084-1.096-1.084a1.296 1.296 0 0 0-.491.075 1.18 1.18 0 0 0-.411.249 1.018 1.018 0 0 0-.257.379.922.922 0 0 0-.054.439v2.634h-1.003v-4.503ZM66.667 8.437h1.003v6.26h-1.003v-6.26ZM69.063 12.444a1.908 1.908 0 0 1 .112-.876c.106-.282.278-.542.503-.762.226-.22.5-.395.808-.516a2.674 2.674 0 0 1 1.947 0c.307.12.582.296.807.516.226.22.397.48.503.762.106.282.144.58.112.876.033.297-.005.596-.11.878a2.095 2.095 0 0 1-.503.763c-.226.22-.5.396-.808.517a2.67 2.67 0 0 1-.975.183 2.67 2.67 0 0 1-.975-.183 2.418 2.418 0 0 1-.807-.517 2.095 2.095 0 0 1-.503-.763 1.907 1.907 0 0 1-.11-.878Zm3.76 0c0-.976-.494-1.547-1.362-1.547-.872 0-1.362.571-1.362 1.547 0 .984.49 1.55 1.362 1.55.868 0 1.362-.57 1.362-1.55ZM74.91 13.424c0-.81.682-1.277 1.89-1.344l1.376-.07v-.389c0-.476-.355-.744-1.04-.744-.56 0-.947.182-1.059.5h-.97c.102-.773.923-1.27 2.075-1.27 1.274 0 1.992.563 1.992 1.514v3.077h-.965v-.633h-.08a1.648 1.648 0 0 1-.654.536 1.892 1.892 0 0 1-.871.171c-.213.02-.429 0-.633-.06a1.593 1.593 0 0 1-.55-.28 1.383 1.383 0 0 1-.376-.456 1.23 1.23 0 0 1-.134-.552Zm3.266-.384v-.377l-1.24.07c-.7.042-1.017.253-1.017.65 0 .405.396.64.942.64.16.015.321.001.474-.041.154-.042.296-.111.419-.203.123-.092.223-.205.296-.332a.97.97 0 0 0 .126-.407ZM80.492 12.444c0-1.422.825-2.324 2.109-2.324.317-.013.632.055.908.195s.501.346.65.595h.074V8.437h1.003v6.26h-.96v-.71h-.08a1.68 1.68 0 0 1-.674.59c-.281.138-.6.206-.921.195-1.293 0-2.109-.901-2.109-2.328Zm1.036 0c0 .955.507 1.53 1.357 1.53.845 0 1.367-.583 1.367-1.526 0-.938-.527-1.53-1.367-1.53-.844 0-1.357.58-1.357 1.527ZM89.384 12.444a1.906 1.906 0 0 1 .112-.876c.106-.282.277-.542.503-.761.225-.22.5-.396.807-.517a2.673 2.673 0 0 1 1.947 0c.307.12.582.296.808.517.225.22.396.479.502.76.106.283.144.582.112.877.033.297-.005.596-.11.878a2.094 2.094 0 0 1-.503.763c-.225.22-.5.396-.808.517a2.67 2.67 0 0 1-1.95 0 2.417 2.417 0 0 1-.807-.517 2.094 2.094 0 0 1-.502-.763 1.906 1.906 0 0 1-.111-.878Zm3.76 0c0-.976-.495-1.546-1.363-1.546-.871 0-1.361.57-1.361 1.546 0 .984.49 1.55 1.361 1.55.868 0 1.363-.57 1.363-1.55ZM95.52 10.195h.966v.715h.075c.127-.257.341-.472.613-.616a1.68 1.68 0 0 1 .902-.186c.248-.017.496.016.727.097.23.08.438.205.607.366.169.16.295.353.368.563.074.21.093.431.057.649v2.915h-1.003v-2.692c0-.724-.354-1.084-1.096-1.084a1.297 1.297 0 0 0-.491.075 1.18 1.18 0 0 0-.411.249 1.018 1.018 0 0 0-.257.379.923.923 0 0 0-.054.439v2.634h-1.002v-4.503ZM105.5 9.074v1.142h1.1v.748h-1.1v2.315c0 .472.219.679.718.679.128 0 .256-.008.382-.02v.74c-.18.028-.362.043-.545.045-1.115 0-1.559-.348-1.559-1.216v-2.543h-.806v-.749h.806V9.074h1.004ZM107.97 8.437h.994v2.482h.079a1.46 1.46 0 0 1 .631-.62c.277-.145.598-.21.918-.187.246-.012.492.024.72.107.228.082.433.207.6.367.167.16.292.352.367.56.074.208.095.428.063.645v2.907h-1.004V12.01c0-.72-.378-1.084-1.086-1.084a1.324 1.324 0 0 0-.508.062c-.162.053-.31.137-.431.245-.122.11-.216.24-.275.384a.942.942 0 0 0-.065.451v2.63h-1.003v-6.26ZM118.187 13.482a1.86 1.86 0 0 1-.833 1.006 2.273 2.273 0 0 1-1.368.297 2.569 2.569 0 0 1-.975-.167 2.318 2.318 0 0 1-.805-.514 1.992 1.992 0 0 1-.488-.766 1.843 1.843 0 0 1-.079-.877 1.854 1.854 0 0 1 .081-.88c.097-.285.263-.547.485-.77.222-.224.496-.402.802-.523.307-.121.639-.183.975-.18 1.413 0 2.266.856 2.266 2.27v.31h-3.587v.05c-.016.165.007.331.068.488.062.157.159.3.286.422.128.122.282.218.454.284.172.065.358.098.545.096.239.025.482-.013.698-.11.215-.097.393-.25.51-.436h.965Zm-3.526-1.451h2.566a.988.988 0 0 0-.068-.446 1.09 1.09 0 0 0-.266-.383 1.242 1.242 0 0 0-.418-.255 1.368 1.368 0 0 0-.499-.083 1.448 1.448 0 0 0-.506.085 1.311 1.311 0 0 0-.429.253 1.156 1.156 0 0 0-.285.38 1.031 1.031 0 0 0-.095.449Z" fill="#fff"/>
    </symbol>

    <symbol id="headset" viewBox="0 0 76 92">
        <path d="M67.167 54.333V71h-8.334V54.333h8.334Zm-50 0V71H13a4.179 4.179 0 0 1-4.167-4.167v-12.5h8.334ZM38 .167C17.292.167.5 16.958.5 37.667v29.166c0 6.917 5.583 12.5 12.5 12.5h12.5V46H8.833v-8.333C8.833 21.542 21.875 8.5 38 8.5s29.167 13.042 29.167 29.167V46H50.5v33.333h16.667V83.5H38v8.333h25c6.917 0 12.5-5.583 12.5-12.5V37.667c0-20.709-16.792-37.5-37.5-37.5Z" fill="#3077C6"/>
    </symbol>

    <symbol id="discuss" viewBox="0 0 84 84">
        <path d="M54.5 8.667v29.166H13.542l-4.875 4.875V8.667H54.5ZM58.667.333H4.5A4.179 4.179 0 0 0 .333 4.5v58.333L17 46.167h41.667A4.179 4.179 0 0 0 62.833 42V4.5A4.179 4.179 0 0 0 58.667.333ZM79.5 17h-8.333v37.5H17v8.333A4.179 4.179 0 0 0 21.167 67H67l16.667 16.667v-62.5A4.179 4.179 0 0 0 79.5 17Z" fill="#3077C6"/>
    </symbol>

    <symbol id="devices" viewBox="0 0 100 68">
        <path d="M16.667 9h75V.667h-75C12.083.667 8.333 4.417 8.333 9v45.833H0v12.5h58.333v-12.5H16.667V9Zm79.166 8.333h-25a4.179 4.179 0 0 0-4.166 4.167v41.667a4.179 4.179 0 0 0 4.166 4.166h25A4.179 4.179 0 0 0 100 63.167V21.5a4.179 4.179 0 0 0-4.167-4.167Zm-4.166 37.5H75V25.667h16.667v29.166Z" fill="#3077C6"/>
    </symbol>

    <symbol id="thumb-up" viewBox="0 0 92 84">
        <path d="M83.5 29.333H57.208l3.959-19.041.125-1.334a6.272 6.272 0 0 0-1.834-4.416L55.042.167 27.625 27.625a8.147 8.147 0 0 0-2.458 5.875v41.667c0 4.583 3.75 8.333 8.333 8.333H71a8.277 8.277 0 0 0 7.667-5.083L91.25 49.042A8.232 8.232 0 0 0 91.833 46v-8.333c0-4.584-3.75-8.334-8.333-8.334ZM83.5 46 71 75.167H33.5V33.5l18.083-18.083-4.625 22.25H83.5V46ZM.167 33.5h16.666v50H.167v-50Z" fill="#3077C6"/>
    </symbol>
</svg>

